<svg width="25" height="25" viewBox="0 0 25 25" fill="none" xmlns="http://www.w3.org/2000/svg">
<path d="M14.0975 9.10187L9.09912 14.1003C8.982 14.2164 8.88904 14.3546 8.8256 14.5069C8.76215 14.6592 8.72949 14.8225 8.72949 14.9875C8.72949 15.1524 8.76215 15.3158 8.8256 15.468C8.88904 15.6203 8.982 15.7585 9.09912 15.8747C9.21529 15.9918 9.35349 16.0848 9.50577 16.1482C9.65804 16.2117 9.82137 16.2443 9.98634 16.2443C10.1513 16.2443 10.3146 16.2117 10.4669 16.1482C10.6192 16.0848 10.7574 15.9918 10.8735 15.8747L15.8719 10.8763C16.1072 10.641 16.2394 10.3219 16.2394 9.98908C16.2394 9.65631 16.1072 9.33717 15.8719 9.10187C15.6366 8.86657 15.3175 8.73438 14.9847 8.73438C14.652 8.73438 14.3328 8.86657 14.0975 9.10187V9.10187Z" fill="black"/>
<path d="M12.8355 19.2359L11.236 20.8229C10.3381 21.7481 9.13102 22.3105 7.845 22.4027C6.55897 22.4949 5.28401 22.1105 4.26329 21.3227C3.7238 20.8782 3.28356 20.3254 2.97101 19.7001C2.65845 19.0748 2.48053 18.391 2.44873 17.6926C2.41693 16.9943 2.53197 16.2971 2.78641 15.646C3.04086 14.9949 3.42904 14.4044 3.9259 13.9126L5.70033 12.1257C5.81745 12.0095 5.91041 11.8713 5.97385 11.7191C6.03729 11.5668 6.06996 11.4035 6.06996 11.2385C6.06996 11.0735 6.03729 10.9102 5.97385 10.7579C5.91041 10.6056 5.81745 10.4674 5.70033 10.3513C5.58416 10.2342 5.44595 10.1412 5.29368 10.0778C5.1414 10.0143 4.97807 9.98165 4.81311 9.98165C4.64815 9.98165 4.48482 10.0143 4.33255 10.0778C4.18027 10.1412 4.04206 10.2342 3.9259 10.3513L2.33891 11.9508C1.00204 13.2453 0.180337 14.9811 0.0263626 16.8356C-0.127612 18.6902 0.396602 20.5377 1.50168 22.035C2.15757 22.8859 2.987 23.5875 3.93488 24.0932C4.88276 24.5988 5.92739 24.897 6.99938 24.968C8.07137 25.0389 9.14618 24.8809 10.1524 24.5045C11.1586 24.128 12.0733 23.5418 12.8355 22.7848L14.61 21.0103C14.8453 20.775 14.9775 20.4559 14.9775 20.1231C14.9775 19.7904 14.8453 19.4712 14.61 19.2359C14.3747 19.0006 14.0555 18.8684 13.7227 18.8684C13.39 18.8684 13.0708 19.0006 12.8355 19.2359V19.2359ZM22.0576 1.51662C20.5499 0.400064 18.6874 -0.129487 16.8178 0.0268846C14.9482 0.183256 13.1995 1.01485 11.8983 2.36635L10.5488 3.74091C10.3945 3.85304 10.2655 3.99632 10.1702 4.16146C10.0748 4.32661 10.0152 4.50994 9.99514 4.69959C9.97511 4.88924 9.99514 5.08098 10.0539 5.2624C10.1127 5.44382 10.2089 5.61088 10.3363 5.75276C10.4525 5.86988 10.5907 5.96284 10.743 6.02628C10.8953 6.08972 11.0586 6.12239 11.2235 6.12239C11.3885 6.12239 11.5518 6.08972 11.7041 6.02628C11.8564 5.96284 11.9946 5.86988 12.1108 5.75276L13.7352 4.11579C14.6282 3.18648 15.8339 2.62106 17.1193 2.52875C18.4048 2.43643 19.6789 2.82377 20.6955 3.61595C21.239 4.06056 21.6827 4.61469 21.9978 5.24225C22.3128 5.86981 22.4921 6.55671 22.5239 7.25818C22.5558 7.95966 22.4394 8.65997 22.1825 9.31348C21.9256 9.96699 21.5339 10.559 21.0329 11.0511L19.2585 12.838C19.1413 12.9541 19.0484 13.0923 18.9849 13.2446C18.9215 13.3969 18.8888 13.5602 18.8888 13.7252C18.8888 13.8902 18.9215 14.0535 18.9849 14.2058C19.0484 14.358 19.1413 14.4962 19.2585 14.6124C19.3746 14.7295 19.5128 14.8225 19.6651 14.8859C19.8174 14.9494 19.9807 14.982 20.1457 14.982C20.3106 14.982 20.474 14.9494 20.6262 14.8859C20.7785 14.8225 20.9167 14.7295 21.0329 14.6124L22.8073 12.838C23.5623 12.0758 24.1467 11.162 24.5218 10.157C24.897 9.15201 25.0543 8.07876 24.9834 7.00836C24.9126 5.93796 24.6151 4.89483 24.1106 3.94808C23.6062 3.00132 22.9064 2.17254 22.0576 1.51662V1.51662Z" fill="black"/>
</svg>
