<svg width="20" height="20" viewBox="0 0 20 20" fill="none" xmlns="http://www.w3.org/2000/svg">
<rect width="20" height="20" fill="white"/>
<path d="M4 18C4 19.1046 3.10457 20 2 20C0.89543 20 0 19.1046 0 18C0 16.8954 0.89543 16 2 16C3.10457 16 4 16.8954 4 18Z" fill="black"/>
<path d="M10 12C10 13.1046 9.10457 14 8 14C6.89543 14 6 13.1046 6 12C6 10.8954 6.89543 10 8 10C9.10457 10 10 10.8954 10 12Z" fill="black"/>
<path d="M20 2C20 3.10457 19.1046 4 18 4C16.8954 4 16 3.10457 16 2C16 0.89543 16.8954 0 18 0C19.1046 0 20 0.89543 20 2Z" fill="black"/>
<path d="M15 15C15 16.1046 14.1046 17 13 17C11.8954 17 11 16.1046 11 15C11 13.8954 11.8954 13 13 13C14.1046 13 15 13.8954 15 15Z" fill="black"/>
<line x1="2.79289" y1="17.2929" x2="7.79289" y2="12.2929" stroke="black" stroke-width="2"/>
<line x1="13.0623" y1="15.1527" x2="18.0623" y2="1.65269" stroke="black" stroke-width="2"/>
<line x1="8.5547" y1="12.1679" x2="13.0547" y2="15.1679" stroke="black" stroke-width="2"/>
</svg>
