<svg width="20" height="18" viewBox="0 0 20 18" fill="none" xmlns="http://www.w3.org/2000/svg">
<rect width="20" height="18" fill="white"/>
<path d="M8.36364 12.5556H11.6364M15.3182 17C15.8017 17 16.2805 16.8965 16.7272 16.6955C17.1739 16.4945 17.5797 16.1999 17.9216 15.8284C18.2635 15.457 18.5347 15.016 18.7197 14.5307C18.9048 14.0454 19 13.5253 19 13C19 12.4747 18.9048 11.9546 18.7197 11.4693C18.5347 10.984 18.2635 10.543 17.9216 10.1716C17.5797 9.80014 17.1739 9.5055 16.7272 9.30448C16.2805 9.10346 15.8017 9 15.3182 9C14.3417 9 13.4052 9.42143 12.7147 10.1716C12.0243 10.9217 11.6364 11.9391 11.6364 13C11.6364 14.0609 12.0243 15.0783 12.7147 15.8284C13.4052 16.5786 14.3417 17 15.3182 17V17ZM8.36364 4.55556H11.6364H8.36364ZM1.40909 11.2222C1.40909 11.2222 4.68182 2.77778 5.09091 1.88889C5.5 1 6.31818 1 6.72727 1C7.13636 1 8.36364 1 8.36364 2.77778V12.5556L1.40909 11.2222ZM4.68182 17C4.19831 17 3.71955 16.8965 3.27285 16.6955C2.82615 16.4945 2.42027 16.1999 2.07838 15.8284C1.73649 15.457 1.46529 15.016 1.28026 14.5307C1.09523 14.0454 1 13.5253 1 13C1 12.4747 1.09523 11.9546 1.28026 11.4693C1.46529 10.984 1.73649 10.543 2.07838 10.1716C2.42027 9.80014 2.82615 9.5055 3.27285 9.30448C3.71955 9.10346 4.19831 9 4.68182 9C5.6583 9 6.59478 9.42143 7.28526 10.1716C7.97573 10.9217 8.36364 11.9391 8.36364 13C8.36364 14.0609 7.97573 15.0783 7.28526 15.8284C6.59478 16.5786 5.6583 17 4.68182 17V17ZM18.5909 11.2222C18.5909 11.2222 15.3182 2.77778 14.9091 1.88889C14.5 1 13.6818 1 13.2727 1C12.8636 1 11.6364 1 11.6364 2.77778V12.5556L18.5909 11.2222Z" stroke="black" stroke-width="2"/>
</svg>
