<svg width="21" height="29" viewBox="0 0 21 29" fill="none" xmlns="http://www.w3.org/2000/svg">
<rect width="20.0003" height="28.0003" fill="white"/>
<path d="M12.4091 19.7222H14.5909M7.77273 23.8889C7.77273 23.8889 9.95455 18.6111 10.2273 18.0556C10.5 17.5 11.0455 17.5 11.3182 17.5C11.5909 17.5 12.4091 17.5 12.4091 18.6111V24.7222H14.5909V18.6111C14.5909 17.5 15.4091 17.5 15.6818 17.5C15.9545 17.5 16.5 17.5 16.7727 18.0556C17.0455 18.6111 19.2273 23.8889 19.2273 23.8889M17.0455 27.5C17.3678 27.5 17.687 27.4353 17.9848 27.3097C18.2826 27.1841 18.5532 26.9999 18.7811 26.7678C19.009 26.5356 19.1898 26.26 19.3132 25.9567C19.4365 25.6534 19.5 25.3283 19.5 25C19.5 24.6717 19.4365 24.3466 19.3132 24.0433C19.1898 23.74 19.009 23.4644 18.7811 23.2322C18.5532 23.0001 18.2826 22.8159 17.9848 22.6903C17.687 22.5647 17.3678 22.5 17.0455 22.5C16.3945 22.5 15.7701 22.7634 15.3098 23.2322C14.8495 23.7011 14.5909 24.337 14.5909 25C14.5909 25.663 14.8495 26.2989 15.3098 26.7678C15.7701 27.2366 16.3945 27.5 17.0455 27.5ZM9.95455 27.5C9.63221 27.5 9.31303 27.4353 9.01523 27.3097C8.71743 27.1841 8.44685 26.9999 8.21892 26.7678C7.99099 26.5356 7.81019 26.26 7.68684 25.9567C7.56349 25.6534 7.5 25.3283 7.5 25C7.5 24.6717 7.56349 24.3466 7.68684 24.0433C7.81019 23.74 7.99099 23.4644 8.21892 23.2322C8.44685 23.0001 8.71743 22.8159 9.01523 22.6903C9.31303 22.5647 9.63221 22.5 9.95455 22.5C10.6055 22.5 11.2299 22.7634 11.6902 23.2322C12.1505 23.7011 12.4091 24.337 12.4091 25C12.4091 25.663 12.1505 26.2989 11.6902 26.7678C11.2299 27.2366 10.6055 27.5 9.95455 27.5Z" stroke="black" stroke-width="1.5"/>
<path d="M6 26.0003H2V2.00034H10V8.00034C10.0016 8.53029 10.2128 9.03808 10.5875 9.41281C10.9623 9.78754 11.4701 9.99876 12 10.0003H18V16H19.9268L20 8.00034C20.0035 7.86892 19.9785 7.73829 19.9268 7.61745C19.875 7.49661 19.7976 7.38842 19.7 7.30034L12.7 0.30034C12.612 0.202685 12.5038 0.12529 12.3829 0.0734971C12.2621 0.0217038 12.1314 -0.00325583 12 0.00034004H2C1.47005 0.00192277 0.962265 0.213145 0.587535 0.587875C0.212805 0.962605 0.00158273 1.47039 0 2.00034V26.0003C0.00158273 26.5303 0.212805 27.0381 0.587535 27.4128C0.962265 27.7875 1.47005 27.9988 2 28.0003H6V26.0003ZM12 2.40034L17.6 8.00034H12V2.40034Z" fill="black"/>
</svg>
